<?xml version="1.0" encoding="UTF-8" standalone="no"?>
<!-- Created with Inkscape (http://www.inkscape.org/) -->

<svg
   width="10.386992mm"
   height="9.3870411mm"
   viewBox="0 0 10.386992 9.3870411"
   version="1.1"
   id="svg1"
   xml:space="preserve"
   xmlns:inkscape="http://www.inkscape.org/namespaces/inkscape"
   xmlns:sodipodi="http://sodipodi.sourceforge.net/DTD/sodipodi-0.dtd"
   xmlns="http://www.w3.org/2000/svg"
   xmlns:svg="http://www.w3.org/2000/svg"><sodipodi:namedview
     id="namedview1"
     pagecolor="#ffffff"
     bordercolor="#999999"
     borderopacity="1"
     inkscape:showpageshadow="2"
     inkscape:pageopacity="0"
     inkscape:pagecheckerboard="0"
     inkscape:deskcolor="#d1d1d1"
     inkscape:document-units="mm"
     inkscape:export-bgcolor="#b86e3a00" /><defs
     id="defs1" /><g
     inkscape:label="Layer 1"
     inkscape:groupmode="layer"
     id="layer1"
     transform="translate(-70.336978,-95.441783)"><path
       style="fill:#000000;stroke-width:0.146539"
       d="m 75.442147,104.82639 c -0.378718,-0.0149 -0.690082,-0.0592 -1.04235,-0.14824 -0.420896,-0.10635 -0.835989,-0.2806 -1.164688,-0.48893 -0.171366,-0.10861 -0.38525,-0.26876 -0.416778,-0.31206 -0.01518,-0.0209 -0.02291,-0.022 -0.103559,-0.015 -0.242083,0.021 -0.696325,0.0747 -0.950195,0.11244 -0.452623,0.0672 -0.508272,0.0675 -0.572563,0.003 -0.0187,-0.0188 -0.0844,-0.15358 -0.173873,-0.35674 -0.122811,-0.27887 -0.361397,-0.79819 -0.543503,-1.18303 -0.132759,-0.28055 -0.13766,-0.29362 -0.13766,-0.36706 0,-0.0396 0.0069,-0.0826 0.016,-0.0995 0.02086,-0.0388 0.09402,-0.10196 0.149883,-0.12938 0.08769,-0.043 0.296532,-0.0878 0.502066,-0.10757 0.06391,-0.006 0.117828,-0.0128 0.119831,-0.0147 0.002,-0.002 -0.01913,-0.0707 -0.04695,-0.15274 -0.150503,-0.44393 -0.204081,-0.73871 -0.213896,-1.17683 -0.0085,-0.38143 0.01749,-0.636627 0.103596,-1.01531 0.08675,-0.381518 0.193949,-0.674475 0.378691,-1.034858 0.208598,-0.406918 0.435417,-0.707616 0.796543,-1.055993 0.652342,-0.629311 1.338879,-1.027728 2.140511,-1.242202 0.268196,-0.07175 0.449066,-0.105894 0.851818,-0.160781 l 0.05519,-0.0075 0.07021,-0.203753 c 0.03862,-0.112065 0.07021,-0.209803 0.07021,-0.217197 3e-6,-0.01003 0.02421,-0.01245 0.09544,-0.0095 0.112289,0.0046 0.08232,-0.01765 0.339286,0.252209 0.09503,0.09979 0.18782,0.188739 0.206214,0.19766 0.01839,0.0089 0.11871,0.02903 0.222933,0.04469 0.442215,0.06645 0.827546,0.19023 1.287438,0.413576 0.482302,0.234227 0.889527,0.520963 1.265711,0.891211 0.184923,0.182004 0.241462,0.245413 0.396972,0.44521 0.56474,0.72556 0.885617,1.552027 0.935261,2.408898 0.02546,0.43947 -0.03247,0.95727 -0.153547,1.37243 -0.02197,0.0753 -0.03796,0.13827 -0.03554,0.13987 0.0024,0.002 0.04453,0.0138 0.09357,0.0271 0.09342,0.0254 0.261946,0.0958 0.261946,0.10953 0,0.004 -0.0125,0.0338 -0.02776,0.0653 -0.01527,0.0315 -0.02781,0.0675 -0.02787,0.0799 -1.04e-4,0.0214 0.003,0.022 0.06398,0.0126 0.03525,-0.005 0.11927,-0.008 0.186707,-0.006 0.100456,0.003 0.132166,0.008 0.175481,0.0285 0.09744,0.0458 0.129339,0.12894 0.09172,0.23899 -0.01944,0.0568 -0.07611,0.19131 -0.428759,1.01728 -0.303293,0.71037 -0.328172,0.76174 -0.387538,0.80021 -0.074,0.0479 -0.131548,0.0467 -0.565572,-0.0122 -0.287522,-0.039 -0.540199,-0.0643 -0.564562,-0.0564 -0.01363,0.004 0.03938,0.0175 0.211425,0.0521 0.03261,0.007 0.05769,0.0134 0.05573,0.0152 -0.002,0.002 -0.108892,0.009 -0.237636,0.0153 -0.346929,0.018 -0.521591,0.0463 -0.746825,0.12095 -0.104477,0.0346 -0.209386,0.0825 -0.574053,0.26172 -0.451894,0.22212 -0.79851,0.33633 -1.214986,0.40035 -0.238145,0.0366 -0.581439,0.0566 -0.813706,0.0475 z m 0.613065,-0.32998 c 0.212297,-0.0229 0.382858,-0.0526 0.590228,-0.1028 0.314758,-0.0761 0.629882,-0.18754 0.672832,-0.23786 0.02358,-0.0276 0.05717,-0.0431 0.275179,-0.12676 0.174083,-0.0668 0.36596,-0.12468 0.535041,-0.16137 0.145412,-0.0316 0.14944,-0.0342 0.06688,-0.0435 -0.206939,-0.0235 -0.566985,-0.0352 -1.136959,-0.0371 -0.346382,-0.001 -0.85049,-0.006 -1.120239,-0.01 -0.515099,-0.008 -1.638049,0.0106 -2.589677,0.0435 l -0.204292,0.007 0.154132,0.0989 c 0.247006,0.1585 0.45778,0.25894 0.754073,0.35936 0.350344,0.11872 0.670032,0.18671 1.033045,0.2197 0.215897,0.0196 0.75056,0.0146 0.969758,-0.009 z m -3.657595,-1.05458 c 0.07592,-0.18306 0.109318,-0.27717 0.21713,-0.61186 l 0.04939,-0.15331 -0.06134,0.003 -0.06134,0.003 -0.08798,0.24665 c -0.09043,0.25354 -0.141843,0.38089 -0.153583,0.38044 -0.0037,-1.3e-4 -0.02519,-0.0424 -0.04781,-0.0938 -0.02262,-0.0515 -0.08197,-0.18045 -0.131899,-0.28661 -0.04993,-0.10617 -0.09729,-0.20751 -0.105244,-0.2252 l -0.01447,-0.0322 -0.03043,0.0643 c -0.01674,0.0354 -0.06321,0.13431 -0.103283,0.21984 -0.04007,0.0855 -0.09286,0.19409 -0.117317,0.24127 -0.04174,0.0805 -0.04512,0.0841 -0.05518,0.059 -0.0059,-0.0147 -0.05477,-0.14502 -0.108622,-0.28953 l -0.09791,-0.26273 -0.07379,-0.005 c -0.04059,-0.003 -0.07379,-0.004 -0.07378,-0.003 6e-6,0.001 0.0056,0.0156 0.01239,0.0322 0.01347,0.0328 0.232387,0.6441 0.268132,0.74869 0.04056,0.11869 0.05567,0.1555 0.06384,0.1555 0.0045,0 0.07251,-0.12563 0.151203,-0.27917 0.0787,-0.15354 0.146447,-0.28116 0.150555,-0.28361 0.01075,-0.006 0.115449,0.1743 0.224232,0.38699 0.05161,0.1009 0.09705,0.18178 0.100971,0.17972 0.0039,-0.002 0.04268,-0.0894 0.08612,-0.19419 z m 2.897544,-0.0732 c 0.02353,-0.0468 0.05708,-0.11519 0.07455,-0.15206 0.01747,-0.0369 0.03715,-0.0668 0.04374,-0.0666 0.0066,3e-4 0.03806,0.0521 0.06993,0.11528 0.03188,0.0632 0.06993,0.13341 0.08455,0.15612 l 0.0266,0.0413 0.06213,-0.17533 c 0.09848,-0.27791 0.172664,-0.4808 0.202519,-0.55387 l 0.02759,-0.0675 -0.06313,0.003 -0.06313,0.003 -0.09224,0.2252 c -0.05073,0.12387 -0.09227,0.23096 -0.09231,0.23798 -3.9e-5,0.007 -0.0048,0.0156 -0.01065,0.0191 -0.01089,0.006 -0.02635,-0.0229 -0.173529,-0.32942 l -0.08624,-0.17963 h -0.07076 c -0.08367,0 -0.08602,-0.0206 0.02227,0.19581 l 0.07382,0.14755 -0.02927,0.0669 c -0.0161,0.0368 -0.03601,0.0762 -0.04425,0.0875 -0.01431,0.0196 -0.01552,0.0192 -0.02698,-0.01 -0.0066,-0.0167 -0.02942,-0.0694 -0.0507,-0.11707 -0.02128,-0.0477 -0.06003,-0.14462 -0.0861,-0.2154 l -0.04741,-0.12868 -0.06395,-0.003 c -0.03518,-0.002 -0.06396,-3e-4 -0.06396,0.003 0,0.004 0.04719,0.12082 0.104861,0.26059 0.05767,0.13976 0.126083,0.3072 0.15202,0.37208 0.05207,0.13025 0.06596,0.15947 0.07271,0.15297 0.0025,-0.002 0.02379,-0.0426 0.04732,-0.0894 z m -2.078165,0.0477 c 0.01646,-0.0792 0.02698,-0.0747 -0.172231,-0.0732 -0.09856,7.5e-4 -0.18081,-3.1e-4 -0.182784,-0.002 -0.0045,-0.005 -0.0094,-0.0902 -0.0073,-0.12965 l 0.0015,-0.0295 h 0.173357 0.173356 l -0.0034,-0.0563 -0.0034,-0.0563 h -0.1672 -0.1672 l -0.0032,-0.0936 -0.0032,-0.0936 0.175991,-0.003 0.175988,-0.003 v -0.0536 -0.0536 h -0.234079 -0.23408 l -0.0029,0.34048 -0.0029,0.34048 h 0.238417 0.238416 z m 0.637938,0.008 c 0.04544,-0.0204 0.06174,-0.0351 0.08081,-0.073 0.01315,-0.0261 0.0239,-0.0606 0.0239,-0.0767 0,-0.04 -0.03475,-0.10151 -0.08211,-0.14526 -0.03937,-0.0364 -0.03942,-0.0366 -0.01862,-0.062 0.04888,-0.0598 0.0365,-0.17462 -0.02562,-0.23759 -0.06126,-0.0621 -0.08684,-0.0694 -0.24707,-0.0705 l -0.144906,-0.001 -0.0029,0.34585 -0.0029,0.34584 0.181288,-10e-5 c 0.167369,-1e-4 0.185657,-0.002 0.238206,-0.0256 z m -0.291377,-0.0733 c -0.0035,-0.009 -0.0048,-0.0468 -0.003,-0.0845 l 0.0034,-0.0686 h 0.09664 c 0.08741,0 0.09943,0.003 0.125925,0.0265 0.03709,0.0335 0.03481,0.081 -0.0052,0.10865 -0.03894,0.0269 -0.208576,0.0409 -0.217737,0.0179 z m -0.01634,-0.36664 c 0,-0.0796 0.004,-0.1131 0.01393,-0.11656 0.02205,-0.008 0.13405,0.004 0.161122,0.0162 0.0316,0.0147 0.0624,0.0769 0.05341,0.10781 -0.02305,0.0793 -0.06163,0.10428 -0.161032,0.10428 h -0.06743 z m 0.892856,0.45339 c 0.09146,-0.0295 0.145641,-0.0951 0.145641,-0.17647 0,-0.0688 -0.02102,-0.11881 -0.06118,-0.14548 -0.01948,-0.0129 -0.03748,-0.025 -0.04,-0.0269 -0.0025,-0.002 0.005,-0.0136 0.01672,-0.0261 0.01709,-0.0182 0.0213,-0.039 0.0213,-0.10546 0,-0.0742 -0.0033,-0.0869 -0.03123,-0.12221 -0.05349,-0.0675 -0.08207,-0.0761 -0.266943,-0.0804 l -0.164414,-0.004 v 0.34951 0.34951 h 0.17111 c 0.09829,0 0.187235,-0.005 0.209,-0.0122 z m -0.250065,-0.0915 c -0.0041,-0.004 -0.0074,-0.0473 -0.0074,-0.0963 0,-0.0862 8.53e-4,-0.0894 0.0279,-0.0959 0.01534,-0.004 0.06605,-0.005 0.112669,-0.003 0.07626,0.004 0.08745,0.007 0.111435,0.0339 0.05338,0.0597 0.02506,0.13409 -0.05965,0.15673 -0.04658,0.0125 -0.173345,0.0153 -0.184921,0.004 z m -0.0051,-0.39232 0.0032,-0.0885 0.06403,-0.003 c 0.108499,-0.005 0.174085,0.0386 0.158585,0.1065 -0.01126,0.0493 -0.06183,0.0736 -0.153397,0.0736 l -0.07569,4e-5 z m 3.024414,0.45577 c 0.0117,-0.0221 0.02308,-0.0438 0.02529,-0.0483 0.0022,-0.004 -0.104255,-0.008 -0.236576,-0.008 -0.132319,0 -0.240581,-0.002 -0.240581,-0.005 0,-0.003 0.06395,-0.0987 0.142119,-0.21372 0.152518,-0.22441 0.251101,-0.37192 0.257222,-0.38488 0.0047,-0.01 -0.157461,-0.0103 -0.403674,-9.1e-4 l -0.186237,0.007 0.0033,0.0492 0.0033,0.0492 0.178347,3e-4 c 0.151276,3.1e-4 0.177783,0.003 0.174636,0.0161 -0.0036,0.0154 -0.119626,0.18372 -0.308446,0.44744 l -0.09406,0.13137 h 0.332014 0.332015 z m 0.694251,-0.0375 0.03549,-0.0777 0.130942,0.005 0.130942,0.005 0.03344,0.0643 0.03344,0.0644 0.07524,0.003 c 0.04138,0.002 0.07524,7e-5 0.07524,-0.004 0,-0.004 -0.02813,-0.0506 -0.0625,-0.10411 -0.03438,-0.0535 -0.119429,-0.20851 -0.189008,-0.34454 l -0.126505,-0.24734 -0.01821,0.0426 c -0.05817,0.13625 -0.21091,0.47697 -0.230365,0.5139 -0.01261,0.0239 -0.02851,0.047 -0.03535,0.0514 -0.01642,0.0104 -0.255059,0.0106 -0.250139,1.6e-4 0.0021,-0.004 0.02329,-0.0442 0.04709,-0.0885 0.03324,-0.0617 0.199212,-0.40505 0.237205,-0.49062 0.0047,-0.0105 -0.04677,-0.0134 -0.236362,-0.0134 H 77.31185 l 0.0062,0.0444 c 0.0034,0.0245 0.01285,0.0485 0.02097,0.0535 0.0081,0.005 0.07155,0.009 0.140931,0.009 0.147315,1.5e-4 0.141853,-0.0119 0.06324,0.13957 -0.06089,0.1173 -0.217254,0.43741 -0.217254,0.44477 0,0.003 0.121984,0.006 0.271078,0.006 h 0.271079 z m 0.68284,0.067 c 0.0056,0 0.01023,-0.0483 0.01023,-0.10724 v -0.10724 h 0.06027 c 0.0583,0 0.06171,0.002 0.104237,0.0509 0.02418,0.028 0.06298,0.0787 0.08621,0.1126 l 0.04225,0.0617 h 0.0653 c 0.03592,0 0.0653,-0.003 0.0653,-0.006 0,-0.003 -0.01204,-0.0214 -0.02674,-0.0402 -0.01471,-0.0188 -0.05679,-0.0775 -0.09352,-0.13042 l -0.06679,-0.0963 0.03042,-0.0178 c 0.07485,-0.0438 0.110771,-0.12894 0.08983,-0.21292 -0.01631,-0.0654 -0.06075,-0.11649 -0.135452,-0.15572 -0.05484,-0.0288 -0.07087,-0.0317 -0.197098,-0.0358 -0.07669,-0.002 -0.141978,-7e-5 -0.147758,0.005 -0.0063,0.006 -0.0074,0.14223 -0.0029,0.34393 l 0.0074,0.33398 0.03444,0.004 c 0.01894,0.002 0.04112,0.003 0.04928,6e-4 0.0082,-0.002 0.01945,-0.004 0.02508,-0.004 z m -8.52e-4,-0.44379 c 0,-0.14045 -0.0042,-0.13563 0.108166,-0.12504 0.07837,0.007 0.1203,0.0356 0.135226,0.091 0.02511,0.0932 -0.05134,0.15587 -0.190446,0.15603 l -0.05295,6e-5 z m 0.869849,0.43746 c 0.09151,-0.0247 0.164386,-0.082 0.208426,-0.16384 0.03122,-0.058 0.03637,-0.0785 0.03628,-0.14444 -1.37e-4,-0.0969 -0.03139,-0.16563 -0.104895,-0.23056 -0.09425,-0.0833 -0.2135,-0.11971 -0.391571,-0.11971 h -0.105344 v 0.3378 0.3378 h 0.146962 c 0.100428,0 0.166967,-0.005 0.210141,-0.017 z m -0.231703,-0.0966 c -0.0105,-0.005 -0.01393,-0.0616 -0.01393,-0.23185 v -0.2258 l 0.09773,0.005 c 0.119592,0.007 0.17487,0.0307 0.220195,0.0961 0.0246,0.0355 0.03322,0.0622 0.03678,0.11383 0.0077,0.11163 -0.03285,0.18522 -0.121687,0.22093 -0.04179,0.0168 -0.19523,0.0318 -0.219085,0.0215 z m -3.040251,-0.24021 v -0.34315 h -0.05852 -0.05852 v 0.34316 0.34317 l 0.05852,-10e-6 0.05852,-2e-5 z m 0.206213,-0.0322 c 0,-0.20643 1.42e-4,-0.37895 4.26e-4,-0.38338 5.69e-4,-0.0116 -0.04234,-0.0163 -0.08271,-0.009 l -0.03477,0.006 -0.0033,0.3807 -0.0033,0.3807 h 0.06185 0.06185 z m -0.496027,-0.66508 c 1.490453,-0.0282 1.960965,-0.0471 2.261573,-0.0912 0.130431,-0.0191 0.18458,-0.0404 0.284884,-0.11194 0.09845,-0.0702 0.187428,-0.11166 0.346236,-0.16129 0.228897,-0.0715 0.289767,-0.0804 0.546052,-0.0799 0.236304,4.6e-4 0.335661,0.0118 0.507172,0.0578 0.04292,0.0115 0.08125,0.0176 0.08518,0.0135 0.01055,-0.0109 0.04262,-0.15483 0.0366,-0.1642 -0.01258,-0.0196 -0.223628,-0.0662 -0.411593,-0.0909 -0.161606,-0.0212 -0.483306,-0.021 -0.674373,4.5e-4 -0.168594,0.019 -0.460734,0.0665 -0.696194,0.11331 -0.200077,0.0398 -0.517849,0.0945 -0.864337,0.149 -0.630153,0.099 -1.021586,0.14136 -1.716586,0.18562 -0.290458,0.0185 -1.427845,0.0185 -1.649706,-6e-5 -0.352255,-0.0294 -0.692512,-0.0743 -0.711832,-0.094 -0.0039,-0.004 0.135829,-0.003 0.310552,0.002 0.441879,0.013 0.766306,0.011 0.782787,-0.005 0.01002,-0.01 -0.0019,-0.0126 -0.05067,-0.0126 -0.17868,0 -0.658956,-0.0401 -1.088813,-0.091 -0.168593,-0.0199 -0.361709,-0.0425 -0.429147,-0.05 -0.179072,-0.0201 -0.549646,-0.0172 -0.713386,0.006 -0.25465,0.0355 -0.516815,0.10832 -0.772445,0.21453 -0.05087,0.0211 -0.136146,0.051 -0.189493,0.0664 -0.14101,0.0407 -0.133994,0.0375 -0.105644,0.0481 0.03244,0.012 0.347192,0.0704 0.42908,0.0795 0.04942,0.006 0.08196,0.002 0.144906,-0.0164 0.125463,-0.0363 0.136691,-0.0414 0.12188,-0.0557 -0.03199,-0.0308 -0.0097,-0.0367 0.207304,-0.0551 0.274846,-0.0233 0.270306,-0.0223 0.270306,-0.0611 0,-0.0413 0.02684,-0.0468 0.182102,-0.0378 0.153633,0.009 0.306513,0.0294 0.536577,0.0718 0.913735,0.16815 1.473728,0.19976 3.021024,0.17053 z m 2.75671,-0.0319 c 0.09004,-0.006 0.243972,-0.0157 0.342062,-0.0219 0.231681,-0.0146 0.358497,-0.0278 0.529465,-0.0548 0.163142,-0.0258 0.182361,-0.0328 0.137565,-0.0505 -0.124668,-0.0493 -0.432831,-0.0697 -0.600151,-0.0397 -0.172419,0.0309 -0.526462,0.12539 -0.624212,0.16663 -0.03145,0.0133 0.0136,0.0133 0.215271,3e-4 z m -3.408788,-0.38671 c 0.543713,-0.0475 1.044673,-0.23766 1.465784,-0.5565 0.178751,-0.13534 0.371488,-0.337 0.487554,-0.51012 0.141548,-0.21114 0.241232,-0.48808 0.281738,-0.78271 0.03378,-0.245739 0.02378,-0.220966 0.100149,-0.24797 0.03678,-0.01301 0.104499,-0.03411 0.150479,-0.04689 0.04598,-0.01278 0.103429,-0.02921 0.127665,-0.0365 l 0.04406,-0.01326 -0.07193,-0.03337 c -0.03956,-0.01835 -0.147171,-0.0656 -0.239132,-0.104988 -0.47762,-0.204575 -0.880641,-0.432127 -1.128608,-0.637234 -0.310192,-0.256575 -0.632059,-0.787034 -0.797367,-1.314115 -0.0222,-0.07078 -0.06598,-0.256569 -0.09729,-0.412871 -0.139209,-0.694866 -0.213239,-1.022554 -0.233766,-1.034759 -0.01102,-0.0066 -0.03602,0.06146 -0.139934,0.380602 -0.125262,0.384722 -0.166732,0.495974 -0.233849,0.627348 -0.07282,0.142534 -0.212267,0.347264 -0.308314,0.452654 -0.07983,0.0876 -0.242738,0.232053 -0.363923,0.322711 -0.04492,0.03361 -0.09407,0.07066 -0.109217,0.08235 -0.0353,0.02723 -0.0369,0.0248 -0.08815,-0.133848 -0.02191,-0.06783 -0.04527,-0.13539 -0.0519,-0.150134 l -0.01205,-0.02681 -0.01535,0.03509 c -0.0084,0.0193 -0.04413,0.17337 -0.0793,0.342375 l -0.06396,0.307283 -0.117875,0.102668 c -0.233809,0.203645 -0.562134,0.496447 -0.565112,0.503967 -0.0033,0.0083 0.02895,0.02606 0.07895,0.0435 0.03766,0.01314 0.0337,0.02064 -0.04066,0.07706 -0.152864,0.115986 -0.497053,0.468566 -0.466866,0.478248 0.01983,0.0064 0.01702,0.03886 -0.01515,0.1754 -0.05081,0.215653 -0.06184,0.290323 -0.06793,0.459893 -0.0054,0.15071 -0.0032,0.17923 0.0234,0.30563 0.03879,0.18414 0.07446,0.28665 0.148675,0.42729 0.100302,0.19008 0.182233,0.30023 0.324655,0.43648 0.237169,0.22689 0.474785,0.34845 0.814953,0.41691 0.180008,0.0362 0.245373,0.0458 0.406853,0.0596 0.197231,0.0168 0.68443,0.0197 0.85272,0.005 z m -0.512747,-0.41821 c -0.144605,-0.01 -0.341887,-0.0435 -0.474104,-0.0803 -0.306985,-0.0855 -0.650567,-0.32803 -0.85066,-0.60035 -0.122694,-0.16699 -0.222625,-0.38743 -0.262422,-0.57889 -0.01823,-0.0877 -0.05387,-0.414045 -0.04604,-0.421576 0.0115,-0.01107 0.03324,0.01898 0.08253,0.114092 0.02957,0.05705 0.07049,0.143434 0.09094,0.191974 0.02045,0.0485 0.03859,0.0869 0.04032,0.0852 0.0017,-0.002 0.01075,-0.0518 0.02005,-0.11133 0.03604,-0.230868 0.0784,-0.367175 0.168208,-0.541251 0.151129,-0.292953 0.332873,-0.488186 0.596248,-0.640502 l 0.09254,-0.05352 0.03433,0.02304 c 0.03807,0.02554 0.294027,0.211505 0.441188,0.320538 0.05211,0.03861 0.108313,0.0786 0.124894,0.08886 l 0.03015,0.01866 -0.01065,-0.0357 c -0.01978,-0.06636 -0.01269,-0.381319 0.01171,-0.520029 0.03221,-0.183117 0.04612,-0.23832 0.06358,-0.252259 0.03265,-0.02607 0.371787,0.01532 0.629937,0.07688 0.15755,0.03757 0.148889,0.01613 0.0815,0.201768 -0.146293,0.403005 -0.324634,0.668374 -0.651691,0.969706 l -0.136584,0.12584 -0.05126,-0.03393 c -0.05133,-0.03398 -0.277993,-0.214409 -0.487296,-0.387906 -0.06131,-0.05082 -0.115345,-0.09244 -0.120085,-0.09249 -0.0047,-5e-5 0.0081,0.03007 0.02864,0.06693 0.05095,0.09165 0.139553,0.287121 0.20129,0.444073 0.147415,0.374772 0.194914,0.667102 0.17789,1.094812 -0.005,0.12534 -0.0082,0.22789 -0.0072,0.22788 9.95e-4,0 0.05091,-0.0567 0.110815,-0.12601 0.243831,-0.28208 0.369558,-0.40648 0.810417,-0.80188 0.218814,-0.19624 0.35347,-0.30536 0.376837,-0.30536 0.01228,0 0.0153,0.007 0.100416,0.24129 0.0762,0.20953 0.169335,0.48178 0.18892,0.55228 l 0.0134,0.0483 0.01002,-0.0322 c 0.02512,-0.0806 0.122102,-0.49978 0.141949,-0.61355 0.01212,-0.0695 0.05032,-0.302534 0.08487,-0.517817 0.03455,-0.215283 0.06391,-0.392475 0.06524,-0.393759 0.0029,-0.0028 0.140167,0.230728 0.171578,0.291882 0.17647,0.343565 0.142636,0.817934 -0.08509,1.193074 -0.117944,0.19429 -0.253077,0.33231 -0.454466,0.4642 -0.365141,0.23912 -0.808284,0.33716 -1.352896,0.29932 z m 0.785128,-0.6638 c 0.0076,-0.006 0.01659,-0.009 0.01986,-0.005 0.0033,0.003 0.01812,-0.008 0.03299,-0.0242 0.01487,-0.0165 0.03426,-0.0315 0.04308,-0.0335 0.0088,-0.002 0.01977,-0.009 0.02433,-0.0161 0.0046,-0.007 0.0085,-0.008 0.0087,-0.002 1.42e-4,0.006 0.01451,-0.011 0.03179,-0.0375 0.02942,-0.0452 0.05218,-0.10237 0.04803,-0.12064 -9.95e-4,-0.004 0.0022,-0.008 0.007,-0.008 0.01691,0 0.01402,-0.075 -0.0039,-0.10128 -0.0099,-0.0145 -0.01511,-0.031 -0.01156,-0.0365 0.0036,-0.006 -0.0013,-0.013 -0.01089,-0.0165 -0.0096,-0.004 -0.01424,-0.0113 -0.01042,-0.0172 0.0038,-0.006 -0.0022,-0.0108 -0.01345,-0.0108 -0.02436,0 -0.104506,0.0643 -0.203866,0.1635 -0.101163,0.10103 -0.124946,0.13287 -0.132902,0.17795 -0.01175,0.0666 -0.0038,0.0875 0.03336,0.0875 0.01797,0 0.03267,0.005 0.03267,0.0111 0,0.0138 0.08547,0.005 0.105182,-0.0106 z m -1.426708,-0.5572 c 0.0034,-0.005 0.01584,-0.007 0.02757,-0.004 0.02754,0.007 0.04462,-0.0233 0.03905,-0.069 -0.0024,-0.0197 8.53e-4,-0.0349 0.0074,-0.0349 0.0064,0 0.009,-0.008 0.0057,-0.0188 -0.0033,-0.0103 -0.0072,-0.0369 -0.0086,-0.059 -0.0014,-0.0221 -0.0071,-0.0402 -0.01268,-0.0402 -0.0055,0 -0.0072,-0.007 -0.0038,-0.0157 0.0035,-0.009 0.0017,-0.0185 -0.0039,-0.0218 -0.0056,-0.003 -0.0073,-0.0131 -0.0039,-0.0218 0.0035,-0.009 7.11e-4,-0.0157 -0.0061,-0.0157 -0.0068,0 -0.01234,-0.007 -0.01234,-0.0161 0,-0.009 -0.0063,-0.0162 -0.01393,-0.0162 -0.0099,-1.2e-4 -0.01029,-0.002 -0.0014,-0.008 0.01641,-0.01032 -4.26e-4,-0.05438 -0.02405,-0.06312 -0.0097,-0.0036 -0.01513,-0.01277 -0.01208,-0.0204 0.0085,-0.0212 -0.04929,-0.05304 -0.09622,-0.05306 -0.02299,-4e-6 -0.04183,0.0048 -0.04187,0.01073 -3.8e-5,0.0059 -0.0075,0.02451 -0.01667,0.04135 -0.01479,0.02727 -0.01475,0.02994 2.85e-4,0.02437 0.01322,-0.0049 0.01464,-0.0021 0.0065,0.01251 -0.02301,0.04137 0.0024,0.22076 0.03945,0.27818 0.02892,0.0449 0.07317,0.0886 0.0896,0.0886 0.01861,0 0.01911,0.0179 7.11e-4,0.0251 -0.0077,0.003 -0.0029,0.006 0.01049,0.006 0.01343,4.6e-4 0.02723,-0.004 0.03066,-0.009 z m 1.625272,-0.614952 c 0.0015,-0.0074 -0.0035,-0.01219 -0.01114,-0.01073 -0.0077,0.0015 -0.01393,-0.002 -0.01393,-0.0077 0,-0.0057 -0.0088,-0.0077 -0.01951,-0.0044 -0.01548,0.0048 -0.01626,0.0038 -0.0038,-0.0047 0.01336,-0.0091 0.01295,-0.01345 -0.0028,-0.02859 -0.01636,-0.01574 -0.02719,-0.09136 -0.01309,-0.09136 0.0055,0 0.08374,0.144967 0.08374,0.155229 0,0.0031 -0.005,0.0056 -0.01114,0.0056 -0.0061,0 -0.0099,-0.006 -0.0084,-0.0134 z m 0.705027,2.184502 c 0.305931,-0.0322 0.557785,-0.0916 0.791412,-0.18688 0.140551,-0.0573 0.540613,-0.24335 0.540613,-0.25142 0,-0.003 -0.02257,-0.0378 -0.05016,-0.0765 -0.02759,-0.0388 -0.05016,-0.075 -0.05016,-0.0805 0,-0.006 0.02274,-0.01 0.05053,-0.01 0.05874,0 0.124513,0.0292 0.223304,0.0993 0.05987,0.0424 0.09182,0.074 0.206156,0.20362 l 0.02855,0.0324 0.07248,-0.0175 c 0.03986,-0.01 0.0847,-0.0175 0.09964,-0.0176 0.01493,-8e-5 0.03881,-0.003 0.05305,-0.007 0.02575,-0.007 0.02588,-0.008 0.02229,-0.15576 -0.0029,-0.11807 -0.0071,-0.15123 -0.02032,-0.15936 -0.02844,-0.0175 -0.26557,-0.0861 -0.35337,-0.10226 -0.153175,-0.0282 -0.35272,-0.0112 -0.526285,0.0448 -0.135023,0.0436 -0.349079,0.15632 -0.541543,0.28529 -0.277756,0.18611 -0.509914,0.31205 -0.699453,0.37942 -0.09292,0.033 -0.111974,0.051 -0.04459,0.042 0.02299,-0.003 0.112024,-0.013 0.197853,-0.022 z m -4.826503,-0.1592 c 0.201822,-0.0484 0.269108,-0.0544 0.601919,-0.0534 0.177789,6e-4 0.368397,0.006 0.423573,0.0122 0.05518,0.006 0.101484,0.0101 0.102906,0.009 0.0014,-10e-4 -0.03626,-0.0528 -0.08373,-0.11442 -0.165364,-0.21466 -0.251779,-0.37522 -0.334283,-0.62114 -0.164613,-0.49064 -0.186344,-0.90367 -0.07335,-1.394105 0.110325,-0.478834 0.332416,-0.923931 0.655562,-1.313821 0.125102,-0.150942 0.499762,-0.507568 0.652491,-0.621082 0.338914,-0.251897 0.657039,-0.42012 1.003198,-0.530486 0.07663,-0.02443 0.145977,-0.04673 0.154096,-0.04954 0.0117,-0.0041 0.01112,-0.0086 -0.0028,-0.02201 -0.02023,-0.01946 -0.02225,-0.03274 -0.0064,-0.04216 0.0061,-0.0036 0.01114,-0.01617 0.01114,-0.02782 0,-0.01166 0.007,-0.03188 0.01565,-0.04494 0.0086,-0.01307 0.01907,-0.04424 0.02326,-0.06927 0.0042,-0.02504 0.01173,-0.04796 0.01675,-0.05095 0.005,-0.003 0.01258,-0.02956 0.0168,-0.05905 0.0042,-0.02949 0.01221,-0.05092 0.01776,-0.04761 0.0056,0.0033 0.01009,-0.0085 0.01009,-0.02617 0,-0.01769 0.0047,-0.03495 0.01039,-0.03835 0.0057,-0.0034 0.01657,-0.03384 0.02413,-0.06766 0.0076,-0.03381 0.0173,-0.0663 0.02164,-0.0722 0.0044,-0.0059 0.01151,-0.03485 0.01593,-0.06434 0.0044,-0.02949 0.01794,-0.0746 0.03005,-0.10024 0.01211,-0.02564 0.01884,-0.04968 0.01496,-0.05341 -0.01194,-0.01148 -0.160755,-0.0012 -0.292721,0.0203 -0.22399,0.03644 -0.497267,0.10896 -0.732832,0.194479 -0.781193,0.283603 -1.558996,0.883455 -2.02739,1.563546 -0.333418,0.484114 -0.541042,0.979472 -0.636013,1.517433 -0.08389,0.475186 -0.08387,0.863596 6.4e-5,1.345126 0.04343,0.24915 0.08979,0.41036 0.201976,0.70227 0.05826,0.15159 0.05618,0.14791 0.0797,0.14128 0.01021,-0.003 0.04866,-0.0124 0.08545,-0.0213 z m 7.604607,-0.20432 0.348131,6e-4 0.04397,-0.12928 c 0.06183,-0.18179 0.07429,-0.228 0.105624,-0.39202 0.05034,-0.26347 0.06738,-0.45436 0.06748,-0.75603 1.39e-4,-0.399426 -0.04001,-0.690775 -0.144814,-1.050947 -0.104519,-0.359184 -0.210318,-0.593121 -0.424371,-0.938341 -0.199438,-0.321653 -0.436525,-0.60885 -0.730882,-0.885355 -0.348286,-0.327164 -0.683981,-0.552582 -1.140371,-0.765754 -0.325261,-0.151926 -0.574853,-0.234418 -0.955842,-0.315914 -0.02435,-0.0052 -0.02357,-0.004 0.07749,0.12155 l 0.08124,0.100916 -0.0083,0.1082 c -0.01113,0.145139 -0.01046,0.362889 0.0015,0.495022 l 0.0098,0.108001 0.135024,0.06358 c 0.390116,0.183703 0.553944,0.285139 0.848543,0.525379 0.746781,0.608987 1.221179,1.529407 1.221179,2.369313 0,0.31758 -0.0662,0.62736 -0.194931,0.91217 -0.03539,0.0783 -0.037,0.0864 -0.02063,0.10381 0.0098,0.0104 0.02717,0.0189 0.03867,0.0189 0.03916,0 0.0393,0.0218 0.0011,0.17962 -0.0053,0.0219 -0.0018,0.0241 0.03869,0.0241 0.05284,0 0.06605,0.0127 0.07611,0.0732 l 0.0075,0.0454 0.08491,-0.008 c 0.0467,-0.005 0.241568,-0.008 0.433042,-0.008 z m -0.994639,-1.0643 c 0.04784,-0.0598 0.07308,-0.0786 0.12198,-0.0912 0.02794,-0.007 0.05079,-0.0159 0.05079,-0.0194 0,-0.003 -0.04073,-0.0254 -0.0905,-0.0487 -0.09859,-0.0461 -0.132436,-0.0776 -0.132436,-0.12289 0,-0.0162 -0.0029,-0.0433 -0.0064,-0.0602 l -0.0064,-0.0308 -0.05635,0.0523 -0.05635,0.0523 -0.07102,-0.005 c -0.07196,-0.006 -0.08456,6e-5 -0.05431,0.0242 0.0092,0.007 0.01683,0.0212 0.01697,0.0308 1.37e-4,0.01 0.01006,0.0295 0.02205,0.0443 0.01198,0.0147 0.02191,0.035 0.02204,0.045 2.84e-4,0.0182 0.04595,0.0729 0.06096,0.0729 0.0044,0 0.0289,0.0162 0.05446,0.0361 0.07382,0.0574 0.09273,0.0605 0.124489,0.0208 z m -0.324045,-0.0307 c 0.03245,-0.006 0.03981,-0.0119 0.03981,-0.0328 0,-0.0141 0.005,-0.0256 0.01114,-0.0256 0.01683,0 0.01336,-0.0467 -0.0052,-0.0703 -0.01026,-0.0131 -0.0165,-0.0155 -0.01672,-0.007 -1.42e-4,0.008 -0.02406,0.0461 -0.05303,0.0852 -0.03027,0.0408 -0.04483,0.0681 -0.03423,0.0642 0.01015,-0.004 0.03636,-0.0101 0.05825,-0.014 z m -0.188592,-1.001953 c -0.01215,-0.01891 -0.18505,-0.144135 -0.406963,-0.294744 -0.259587,-0.176178 -0.36963,-0.263568 -0.4837,-0.384124 -0.276746,-0.292482 -0.351541,-0.451768 -0.429087,-0.913801 -0.09172,-0.546485 -0.130903,-0.840792 -0.142171,-1.067884 l -0.0073,-0.146587 0.03217,-0.01484 c 0.01769,-0.0082 0.03364,-0.02217 0.03543,-0.03114 0.0051,-0.02526 -0.117425,-0.196097 -0.234218,-0.326697 -0.110371,-0.12342 -0.478391,-0.477213 -0.496402,-0.477213 -0.0057,0 -0.01369,0.03773 -0.01769,0.08385 -0.006,0.06876 -0.0032,0.0951 0.01509,0.146376 0.04351,0.121662 0.197537,0.357581 0.365869,0.560387 0.02644,0.03185 0.04623,0.06323 0.04398,0.06972 -0.0022,0.0065 -0.01531,-0.0065 -0.02902,-0.02883 -0.0137,-0.02235 -0.02826,-0.03744 -0.03233,-0.03352 -0.01227,0.01181 -0.0041,0.162242 0.01876,0.344109 0.01184,0.09437 0.0273,0.222253 0.03434,0.284185 0.03805,0.334679 0.08664,0.641993 0.118708,0.750673 0.02901,0.09832 0.08261,0.225202 0.09514,0.225202 0.01137,0 0.0081,-0.04264 -0.0071,-0.09115 -0.0086,-0.02768 0.02339,0.03871 0.05043,0.104557 0.02257,0.05498 0.02154,0.06042 -0.0064,0.03357 -0.02855,-0.02747 -0.03301,-0.0086 -0.0065,0.02725 0.01326,0.01791 0.02615,0.04278 0.02865,0.05526 0.0077,0.03838 0.118374,0.210646 0.216545,0.336999 0.0803,0.103348 0.299053,0.306748 0.39258,0.365023 0.091,0.0567 0.197185,0.114948 0.215566,0.118249 0.02429,0.0044 0.124268,0.05434 0.479306,0.239616 0.144022,0.07516 0.16914,0.08569 0.156162,0.06549 z M 76.12303,97.985191 c 5.68e-4,-0.01249 0.0032,-0.01503 0.0067,-0.0065 0.0032,0.0077 0.0028,0.01699 -8.53e-4,0.02056 -0.0037,0.0036 -0.0063,-0.0028 -0.0059,-0.01408 z m -0.01114,-0.05362 c 5.68e-4,-0.01249 0.0032,-0.01503 0.0067,-0.0065 0.0032,0.0078 0.0028,0.01699 -8.53e-4,0.02056 -0.0037,0.0036 -0.0063,-0.0028 -0.0059,-0.01408 z m -0.01114,-0.0429 c 5.68e-4,-0.01249 0.0032,-0.01503 0.0067,-0.0065 0.0032,0.0077 0.0028,0.01699 -8.53e-4,0.02056 -0.0037,0.0036 -0.0063,-0.0028 -0.0059,-0.01408 z m -3.288078,1.156762 c 0.03471,-0.01972 0.03956,-0.02968 0.02013,-0.04124 -0.0067,-0.004 -0.01908,-0.02239 -0.02743,-0.04085 -0.0095,-0.02096 -0.01535,-0.02633 -0.01562,-0.01429 -2.84e-4,0.0106 -0.0137,0.03111 -0.02993,0.04558 -0.01622,0.01446 -0.02408,0.0263 -0.01747,0.0263 0.0066,0 0.01521,0.0097 0.0191,0.02145 0.0086,0.02606 0.01053,0.02617 0.05123,0.0031 z m 4.333029,-0.388128 c 0.03108,-0.02685 0.04154,-0.03037 0.06482,-0.02186 0.03745,0.0137 0.115482,0.0129 0.115482,-0.0012 0,-0.0062 -0.01571,-0.02514 -0.03492,-0.04201 -0.03705,-0.03256 -0.03705,-0.03257 -0.0081,-0.125949 0.0077,-0.02488 0.01053,-0.04859 0.0063,-0.05267 -0.0043,-0.0041 -0.03226,0.0054 -0.06224,0.02111 -0.02998,0.0157 -0.0619,0.02854 -0.07094,0.02854 -0.009,0 -0.04472,-0.01452 -0.0793,-0.03228 -0.03458,-0.01775 -0.06288,-0.02799 -0.06288,-0.02276 0,0.0052 0.008,0.02802 0.01786,0.05064 0.0098,0.02261 0.01939,0.0799 0.02127,0.127316 0.0019,0.04741 0.0069,0.09456 0.01113,0.10477 0.009,0.02176 0.02502,0.01517 0.08156,-0.03368 z m 0.632957,-0.186885 c 0.01902,0.0069 0.0195,0.0057 0.0049,-0.0115 -0.01446,-0.01709 -0.01337,-0.02113 0.01026,-0.03829 l 0.02643,-0.01918 -0.03544,-0.0075 c -0.01949,-0.0041 -0.0413,-0.01795 -0.04848,-0.03074 -0.01259,-0.02247 -0.01338,-0.02206 -0.02261,0.01195 -0.0076,0.02814 -0.01676,0.0366 -0.04538,0.04215 l -0.03581,0.007 0.03623,0.0091 c 0.02866,0.0072 0.03623,0.01468 0.03623,0.03584 0,0.02564 0.0011,0.02606 0.0263,0.01017 0.01567,-0.0099 0.03481,-0.01351 0.04737,-0.009 z m -4.601217,-0.06884 c 0.0045,-0.03074 -0.02687,-0.0438 -0.05054,-0.02102 -0.02368,0.02278 -0.01011,0.05299 0.02185,0.04863 0.01618,-0.0022 0.0264,-0.01204 0.0287,-0.02761 z m 0.351789,-0.369687 c 0.01977,-0.0155 0.02058,-0.01857 0.0049,-0.01877 -0.01028,-1.31e-4 -0.02098,-0.0087 -0.02379,-0.019 -0.0038,-0.01413 -0.0054,-0.0128 -0.0064,0.0054 -8.53e-4,0.01723 -0.0085,0.02437 -0.02637,0.02497 -0.01379,4.53e-4 -0.01881,0.0033 -0.01114,0.0063 0.0077,0.003 0.01409,0.01828 0.01427,0.03401 2.84e-4,0.02669 0.0011,0.02716 0.01259,0.0071 0.0067,-0.0118 0.02289,-0.02979 0.03589,-0.03998 z m 3.29059,-0.158417 c 0.02091,0 0.03802,-0.0048 0.03802,-0.01073 0,-0.0059 -0.0059,-0.01073 -0.01305,-0.01073 -0.03236,0 -0.05157,-0.03307 -0.04556,-0.07841 l 0.006,-0.04492 -0.02783,0.02457 c -0.03123,0.02758 -0.102618,0.05019 -0.122022,0.03866 -0.0079,-0.0047 -0.0097,-0.0028 -0.0047,0.0049 0.0044,0.0068 0.0233,0.02007 0.04201,0.02938 0.03113,0.01549 0.03344,0.02033 0.0273,0.05725 -0.0089,0.05365 8.53e-4,0.0598 0.03426,0.0216 0.02063,-0.02359 0.03724,-0.03158 0.06564,-0.03158 z"
       id="path254" /></g></svg>
